<?xml version="1.0" encoding="utf-8"?>
<!-- Generator: Adobe Illustrator 24.2.1, SVG Export Plug-In . SVG Version: 6.00 Build 0)  -->
<svg version="1.1" id="Layer_1" xmlns="http://www.w3.org/2000/svg" xmlns:xlink="http://www.w3.org/1999/xlink" x="0px" y="0px"
	 viewBox="0 0 136.4 28.8" style="enable-background:new 0 0 136.4 28.8;" xml:space="preserve">
<style type="text/css">
	.st0{fill:#FFFFFF;}
</style>
<g>
	<g>
		<g>
			<g>
				<path class="st0" d="M38.6,1.9c0.5,0.4,0.7,1,0.7,1.8c0,0.4-0.1,0.8-0.3,1.2c-0.2,0.4-0.5,0.7-0.9,0.9c-0.4,0.2-0.9,0.4-1.5,0.4
					h-1.2v2.9h-1V1.3h2.1C37.5,1.3,38.2,1.5,38.6,1.9z M37.7,4.9c0.2-0.2,0.4-0.4,0.5-0.6s0.2-0.4,0.2-0.7c0-0.4-0.1-0.7-0.4-1
					c-0.2-0.3-0.6-0.4-1.1-0.4h-1.2v2.9h1.2C37.1,5.2,37.4,5.1,37.7,4.9z"/>
				<path class="st0" d="M47.4,9.1l-1.8-2.9c-0.1,0-0.1,0-0.3,0h-1.2v2.9h-1V1.3h2.1c0.5,0,1,0.1,1.4,0.3s0.7,0.5,1,0.8
					C47.9,2.7,48,3.2,48,3.7c0,0.5-0.1,0.9-0.3,1.3s-0.5,0.7-1,0.9l2,3.1H47.4z M46.5,4.7c0.2-0.3,0.4-0.6,0.4-1
					c0-0.2-0.1-0.5-0.2-0.7c-0.1-0.2-0.3-0.4-0.5-0.6c-0.2-0.1-0.5-0.2-0.9-0.2h-1.2v2.9h1.1C45.9,5.2,46.3,5,46.5,4.7z"/>
				<path class="st0" d="M57.5,1.3v1h-4v2.4h3.6v1h-3.6v2.4h4.2v1h-5.2V1.3H57.5z"/>
				<path class="st0" d="M64.8,2.3c-0.3-0.1-0.6-0.1-0.9-0.1c-0.4,0-0.8,0.1-1,0.3c-0.2,0.2-0.4,0.5-0.4,0.8c0,0.3,0.1,0.6,0.4,0.8
					c0.3,0.2,0.7,0.4,1.2,0.6c0.4,0.1,0.7,0.3,1,0.5c0.3,0.2,0.5,0.4,0.7,0.7c0.2,0.3,0.3,0.7,0.3,1.1c0,0.4-0.1,0.8-0.3,1.1
					c-0.2,0.3-0.5,0.6-0.9,0.8c-0.4,0.2-0.8,0.3-1.4,0.3c-0.5,0-0.9-0.1-1.4-0.2c-0.4-0.2-0.8-0.4-1.2-0.6l0.5-0.8
					c0.3,0.2,0.6,0.4,1,0.5c0.4,0.1,0.7,0.2,1,0.2c0.4,0,0.8-0.1,1.1-0.3c0.3-0.2,0.5-0.5,0.5-1c0-0.4-0.1-0.6-0.4-0.9
					c-0.3-0.2-0.6-0.4-1.1-0.6c-0.4-0.2-0.8-0.3-1.1-0.5c-0.3-0.2-0.5-0.4-0.7-0.7c-0.2-0.3-0.3-0.6-0.3-1c0-0.6,0.2-1.1,0.6-1.5
					c0.4-0.4,1-0.6,1.7-0.6c0.8,0,1.6,0.2,2.3,0.6l-0.4,0.8C65.4,2.5,65.1,2.4,64.8,2.3z"/>
				<path class="st0" d="M71.1,1.3v7.8h-1V1.3H71.1z"/>
				<path class="st0" d="M75.5,1.3h2.1c1,0,1.8,0.2,2.4,0.6s1.1,0.9,1.4,1.5s0.4,1.3,0.4,1.9c0,0.8-0.2,1.4-0.5,2
					c-0.4,0.6-0.8,1-1.4,1.3c-0.6,0.3-1.2,0.5-1.9,0.5h-2.5V1.3z M77.8,8.1c0.6,0,1.1-0.1,1.5-0.3c0.5-0.2,0.8-0.6,1.1-1
					c0.3-0.4,0.4-0.9,0.4-1.5c0-0.6-0.1-1.1-0.4-1.6c-0.3-0.4-0.6-0.8-1.1-1c-0.4-0.2-0.9-0.3-1.4-0.3h-1.4v5.8H77.8z"/>
				<path class="st0" d="M90.9,1.3v1h-4v2.4h3.6v1h-3.6v2.4H91v1h-5.2V1.3H90.9z"/>
				<path class="st0" d="M101.8,1.3v8.1h0l-5.7-5.8l0,5.6H95V1h0.1l5.7,5.9l0-5.6H101.8z"/>
				<path class="st0" d="M110.8,1.3v1h-2.1v6.8h-1V2.3h-2v-1H110.8z"/>
				<path class="st0" d="M115.7,1.3v7.8h-1V1.3H115.7z"/>
				<path class="st0" d="M124.2,7h-3l-0.8,2.1h-1l3.4-8.1h0.1l3.4,8.1H125L124.2,7z M123.9,6.1l-1.1-2.9l-1.2,2.9H123.9z"/>
				<path class="st0" d="M130.9,1.3v6.8h4v1h-5V1.3H130.9z"/>
			</g>
			<g>
				<path class="st0" d="M38.9,18.9L37,16c-0.1,0-0.1,0-0.3,0h-1.2v2.9h-1.1V11h2.1c0.5,0,1,0.1,1.4,0.3s0.7,0.5,1,0.8
					c0.2,0.4,0.4,0.8,0.4,1.3c0,0.5-0.1,0.9-0.3,1.3c-0.2,0.4-0.5,0.7-1,0.9l2,3.2H38.9z M37.9,14.5c0.2-0.3,0.4-0.6,0.4-1
					c0-0.2-0.1-0.5-0.2-0.7c-0.1-0.2-0.3-0.4-0.5-0.6c-0.2-0.1-0.5-0.2-0.9-0.2h-1.2V15h1.1C37.3,15,37.7,14.8,37.9,14.5z"/>
				<path class="st0" d="M48.9,11v1h-4v2.4h3.6v1h-3.6v2.4h4.2v1h-5.2V11H48.9z"/>
				<path class="st0" d="M56.2,12.1c-0.3-0.1-0.6-0.1-0.9-0.1c-0.4,0-0.8,0.1-1,0.3C54.1,12.4,54,12.7,54,13c0,0.3,0.1,0.6,0.4,0.8
					c0.3,0.2,0.7,0.4,1.3,0.6c0.4,0.1,0.7,0.3,1,0.5c0.3,0.2,0.5,0.4,0.7,0.7c0.2,0.3,0.3,0.7,0.3,1.1c0,0.4-0.1,0.8-0.3,1.1
					c-0.2,0.3-0.5,0.6-0.9,0.8C56,18.9,55.6,19,55.1,19c-0.5,0-0.9-0.1-1.4-0.2c-0.4-0.2-0.8-0.4-1.2-0.6l0.5-0.8
					c0.3,0.2,0.6,0.4,1,0.5c0.4,0.1,0.7,0.2,1,0.2c0.4,0,0.8-0.1,1.1-0.3c0.3-0.2,0.5-0.5,0.5-1c0-0.4-0.1-0.6-0.4-0.9
					c-0.3-0.2-0.6-0.4-1.1-0.6c-0.4-0.2-0.8-0.3-1.1-0.5c-0.3-0.2-0.5-0.4-0.8-0.7c-0.2-0.3-0.3-0.6-0.3-1c0-0.6,0.2-1.1,0.6-1.5
					c0.4-0.4,1-0.6,1.7-0.6c0.8,0,1.6,0.2,2.3,0.6l-0.4,0.8C56.9,12.3,56.6,12.2,56.2,12.1z"/>
				<path class="st0" d="M66.6,11v1h-4v2.4h3.6v1h-3.6v2.4h4.2v1h-5.2V11H66.6z"/>
				<path class="st0" d="M75.1,18.9L73.3,16c-0.1,0-0.1,0-0.3,0h-1.2v2.9h-1.1V11h2.1c0.5,0,1,0.1,1.4,0.3c0.4,0.2,0.7,0.5,1,0.8
					c0.2,0.4,0.4,0.8,0.4,1.3c0,0.5-0.1,0.9-0.3,1.3c-0.2,0.4-0.5,0.7-1,0.9l2,3.2H75.1z M74.2,14.5c0.2-0.3,0.4-0.6,0.4-1
					c0-0.2-0.1-0.5-0.2-0.7c-0.1-0.2-0.3-0.4-0.5-0.6c-0.2-0.1-0.5-0.2-0.9-0.2h-1.2V15H73C73.5,15,74,14.8,74.2,14.5z"/>
				<path class="st0" d="M86.1,11l-3.5,8.2L79.1,11h1.2l2.3,5.6l2.2-5.6H86.1z"/>
				<path class="st0" d="M94.9,11v1h-4v2.4h3.6v1h-3.6v2.4H95v1h-5.2V11H94.9z"/>
			</g>
		</g>
		<g>
			<path class="st0" d="M27.7,21.4c-0.3-0.5-0.4-0.9-0.4-0.9c-1.8-4-2.7-9-6.8-10.5c2.9-0.1,4.6-1.7,4.6-4.6c0-3.3-2.7-4.2-4.4-4.2
				c-1.7,0-5.9,0-5.9,0v0.6v14.8c0,1.8-1.4,2.2-1.4,2.2h5.7c0,0-1.4-0.4-1.4-2.2v-6.6c4.9,0,4.2,7.2,7.5,12.2
				c0.3,0.4,0.6,0.7,0.6,0.7c1.7,2.2,4.4,3.8,9.1,3.8l0-0.7C31,26.1,29,24.1,27.7,21.4z M17.7,9.5V1.8h1.5c1.1,0,3,0.8,3,3.6
				c0,2.7-0.8,4-3.7,4H17.7z"/>
			<path class="st0" d="M8.8,1.3c-1.2,0-3.7,0-5,0c-0.5,0-0.8,0-0.8,0H1.5c0,0,1.4,0.4,1.4,2.2l0,0v13.2c0,1.8-1.4,2.2-1.4,2.2h5.7
				c0,0-1.4-0.4-1.4-2.2v-6.6c0,0,1.3,0,2.8,0c2.9,0,4.6-1.7,4.6-4.6C13.1,2.2,10.5,1.3,8.8,1.3z M6.5,9.5H5.8V1.8h1.5
				c1.1,0,3,0.8,3,3.6C10.2,8.1,9.4,9.5,6.5,9.5z"/>
		</g>
	</g>
	<g>
		<g>
			<path class="st0" d="M47.7,25.7c0.3-0.2,0.6-0.4,0.6-0.9v0c0-0.3-0.1-0.5-0.3-0.7c-0.2-0.2-0.6-0.4-1.1-0.4h-1.9v4.2H47
				c0.9,0,1.5-0.4,1.5-1.1v0C48.5,26.1,48.2,25.8,47.7,25.7z M45.8,24.3h1c0.5,0,0.7,0.2,0.7,0.5v0c0,0.4-0.3,0.6-0.8,0.6h-1V24.3z
				 M47.8,26.6c0,0.4-0.3,0.6-0.8,0.6h-1.2v-1.1h1.2C47.5,26.1,47.8,26.3,47.8,26.6L47.8,26.6z"/>
			<polygon class="st0" points="61.3,26.7 60.3,23.7 59.6,23.7 58.6,26.7 57.7,23.7 56.9,23.7 58.3,27.8 58.9,27.8 60,24.9 61,27.8 
				61.6,27.8 63,23.7 62.3,23.7 			"/>
			<polygon class="st0" points="65.9,25.5 64.8,23.7 63.9,23.7 65.5,26.2 65.5,27.8 66.3,27.8 66.3,26.2 67.9,23.7 67.1,23.7 			"/>
			<polygon class="st0" points="51.1,25.5 50,23.7 49.1,23.7 50.7,26.2 50.7,27.8 51.5,27.8 51.5,26.2 53.1,23.7 52.3,23.7 			"/>
			<polygon class="st0" points="72.2,26.6 70,23.7 69.3,23.7 69.3,27.8 70,27.8 70,24.9 72.3,27.8 72.9,27.8 72.9,23.7 72.2,23.7 
							"/>
			<path class="st0" d="M76.6,23.7H75v4.2h1.5c1.3,0,2.2-0.9,2.2-2.1v0C78.8,24.6,77.9,23.7,76.6,23.7z M78,25.8
				c0,0.8-0.6,1.4-1.4,1.4h-0.8v-2.8h0.8C77.5,24.4,78,25,78,25.8L78,25.8z"/>
			<polygon class="st0" points="83.1,25.4 81.1,25.4 81.1,23.7 80.4,23.7 80.4,27.8 81.1,27.8 81.1,26.1 83.1,26.1 83.1,27.8 
				83.8,27.8 83.8,23.7 83.1,23.7 			"/>
			<path class="st0" d="M87.1,23.7l-1.8,4.2H86l0.4-1h2l0.4,1h0.8l-1.8-4.2H87.1z M86.7,26.2l0.7-1.7l0.7,1.7H86.7z"/>
			<polygon class="st0" points="94.2,23.7 93,25.7 91.7,23.7 90.9,23.7 90.9,27.8 91.7,27.8 91.7,24.9 93,26.8 93,26.8 94.3,24.9 
				94.3,27.8 95,27.8 95,23.7 			"/>
		</g>
	</g>
</g>
</svg>
