<svg xmlns="http://www.w3.org/2000/svg" xmlns:xlink="http://www.w3.org/1999/xlink" xmlns:svgjs="http://svgjs.com/svgjs" width="512" height="512" x="0" y="0" viewBox="0 0 48 48" style="enable-background:new 0 0 512 512" xml:space="preserve" class=""><g><g id="_x32_-Magnifying_Glass"><path d="m40.2850342 37.4604492-6.4862061-6.4862061c1.9657593-2.5733643 3.0438843-5.6947021 3.0443115-8.9884033 0-3.9692383-1.5458984-7.7011719-4.3530273-10.5078125-2.8066406-2.8066406-6.5380859-4.3525391-10.5078125-4.3525391-3.9692383 0-7.7011719 1.5458984-10.5078125 4.3525391-5.7939453 5.7944336-5.7939453 15.222168 0 21.015625 2.8066406 2.8071289 6.5385742 4.3530273 10.5078125 4.3530273 3.2937012-.0004272 6.4150391-1.0785522 8.9884033-3.0443115l6.4862061 6.4862061c.3901367.390625.9023438.5859375 1.4140625.5859375s1.0239258-.1953125 1.4140625-.5859375c.78125-.7807617.78125-2.0473633 0-2.828125zm-25.9824219-7.7949219c-4.234375-4.234375-4.2338867-11.1245117 0-15.359375 2.0512695-2.0507813 4.7788086-3.1806641 7.6796875-3.1806641 2.9013672 0 5.628418 1.1298828 7.6796875 3.1806641 2.0512695 2.0512695 3.1811523 4.7788086 3.1811523 7.6796875 0 2.9013672-1.1298828 5.628418-3.1811523 7.6796875s-4.7783203 3.1811523-7.6796875 3.1811523c-2.9008789.0000001-5.628418-1.1298827-7.6796875-3.1811523z" fill="#ffffff" data-original="#000000" class=""></path></g></g></svg>