<svg xmlns="http://www.w3.org/2000/svg" xmlns:xlink="http://www.w3.org/1999/xlink" xmlns:svgjs="http://svgjs.com/svgjs" width="512" height="512" x="0" y="0" viewBox="0 0 50 50" style="enable-background:new 0 0 512 512" xml:space="preserve" class=""><g><g id="Icons"><path d="m25 5a16 16 0 0 0 -16 16 15.86 15.86 0 0 0 4.16 10.76l11.08 12.89a1 1 0 0 0 1.52 0l11.08-12.89a15.86 15.86 0 0 0 4.16-10.76 16 16 0 0 0 -16-16zm10.32 25.46-10.32 12.01-10.32-12a14 14 0 1 1 20.64 0z" fill="#808185" data-original="#000000" class=""></path><path d="m25 14a7 7 0 1 0 7 7 7 7 0 0 0 -7-7zm0 12a5 5 0 1 1 5-5 5 5 0 0 1 -5 5z" fill="#808185" data-original="#000000" class=""></path></g></g></svg>