<svg id="Layer_1" data-name="Layer 1"
	xmlns="http://www.w3.org/2000/svg" viewBox="0 0 775.84 207.11">
	<defs>
		<style>.cls-1{fill:#1d1d1b;}</style>
	</defs>
	<title>Artboard 1</title>
	<path class="cls-1" d="M355.72,44.69h-1.53c-57.38,119.19-58.39,126.67-63.84,139H290c-5.46-12.31-6.47-19.79-63.84-139h-1.53s-14.4,159.39-20,159.39v.81h17.12v-.81c-4.19,0,8.48-112.52,9.09-125.45h.4c6.06,16.16,14.75,34.74,25.66,57.57,7.67,16,18.18,40.81,31.51,68.69H292C305.3,177,315.8,152.16,323.48,136.2c10.91-22.83,19.6-41.41,25.66-57.57h.4c.61,12.93,13.28,125.45,9.09,125.45v.81h17.12v-.81c-5.63,0-20-159.39-20-159.39"/>
	<path class="cls-1" d="M67.82,71.15h-.2C65,78.83,35.7,151.76,35.7,151.76c-17.37,43-20.53,51.24-18.38,52.32v.81H0v-.81c4.29,0,67.1-159.39,67.1-159.39h2.05s60,159.39,64.27,159.39v.81H115.58v-.81c2.06-1-.49-9.3-17.45-52.32,0,0-27.88-72.93-30.31-80.61"/>
	<path class="cls-1" d="M514.7,71.15h-.21c-2.62,7.68-31.92,80.61-31.92,80.61-17.36,43-20.52,51.24-18.38,52.32v.81H446.87v-.81c4.29,0,67.1-159.39,67.1-159.39H516s60,159.39,64.27,159.39v.81H562.46v-.81c2.06-1-.49-9.3-17.46-52.32,0,0-27.88-72.93-30.3-80.61"/>
	<path class="cls-1" d="M766.57,47.28h-7.88v.81c1.36,0,2.63,9.5,2.63,67.69V178h-.41C752,165.29,699.49,98,656.85,44.69h-1.53v91.7c0,58.19-2.53,67.69-3.9,67.69v.81h17.16v-.81c-1.3,0-2.63-9.5-2.63-67.69V73.75h.4c8.89,12.74,61.42,80,104.06,133.36h1.53V115.78c0-58.19,2.54-67.69,3.9-67.69v-.81Z"/>
	<rect class="cls-1" x="43.08" width="48.28" height="10.54"/>
</svg>
